<?xml version="1.0" encoding="UTF-8"?>
<svg xmlns="http://www.w3.org/2000/svg" xmlns:xlink="http://www.w3.org/1999/xlink" width="96pt" height="96pt" viewBox="0 0 96 96" version="1.1">
<g id="surface9324931">
<path style=" stroke:none;fill-rule:nonzero;fill:rgb(0%,0%,0%);fill-opacity:1;" d="M 83.6875 15 C 85.527344 15 87.515625 15.566406 88.785156 17.148438 C 90.058594 18.734375 90.191406 20.792969 89.796875 22.605469 C 88.152344 30.148438 86.507812 37.691406 84.859375 45.230469 C 82.972656 44.714844 80.988281 44.441406 78.941406 44.441406 C 78.925781 44.441406 78.910156 44.441406 78.890625 44.441406 C 80.574219 36.738281 82.257812 29.03125 83.9375 21.328125 C 83.976562 21.132812 83.96875 21.117188 83.976562 21.023438 C 83.886719 21.011719 83.878906 21 83.691406 21 L 24.207031 21 C 23.925781 21 23.851562 21.015625 23.753906 21.027344 C 23.71875 21.128906 23.675781 21.21875 23.609375 21.519531 C 19.757812 39.109375 15.902344 56.691406 12.058594 74.277344 L 12.058594 74.285156 C 11.972656 74.691406 12 74.902344 12.019531 74.988281 C 12.078125 74.992188 12.183594 75 12.375 75 L 58.007812 75 C 58.027344 75.046875 58.046875 75.089844 58.066406 75.136719 L 52.199219 81 L 12.375 81 C 10.378906 81 8.328125 80.148438 7.15625 78.527344 C 5.980469 76.90625 5.796875 74.871094 6.199219 73.007812 L 6.199219 73 C 10.046875 55.414062 13.894531 37.820312 17.75 20.230469 C 18.054688 18.839844 18.585938 17.355469 19.90625 16.28125 C 21.222656 15.210938 22.796875 15 24.207031 15 Z M 37.78125 25.425781 L 55.78125 44.636719 C 56.664062 45.574219 57.097656 46.847656 56.980469 48.132812 C 56.863281 49.414062 56.199219 50.585938 55.160156 51.347656 L 28.160156 71.128906 C 26.867188 72.144531 25.125 72.375 23.613281 71.730469 C 22.101562 71.085938 21.058594 69.664062 20.898438 68.03125 C 20.738281 66.394531 21.480469 64.800781 22.839844 63.875 L 45.75 47.085938 L 31.21875 31.578125 C 29.945312 30.257812 29.601562 28.300781 30.34375 26.625 C 31.085938 24.953125 32.769531 23.894531 34.597656 23.953125 C 35.816406 23.992188 36.964844 24.523438 37.78125 25.425781 Z M 46.5 72 C 44.878906 72.023438 43.367188 71.171875 42.550781 69.769531 C 41.730469 68.367188 41.730469 66.632812 42.550781 65.230469 C 43.367188 63.828125 44.878906 62.976562 46.5 63 L 56.789062 63 C 56.558594 64.28125 56.441406 65.597656 56.441406 66.941406 C 56.441406 68.671875 56.640625 70.351562 57.039062 72 Z M 11.976562 74.980469 C 11.957031 74.972656 11.945312 74.976562 11.976562 74.980469 Z M 11.976562 74.980469 "/>
<path style=" stroke:none;fill-rule:nonzero;fill:rgb(0%,0%,0%);fill-opacity:1;" d="M 78.941406 50.441406 C 69.941406 50.441406 62.441406 57.941406 62.441406 66.941406 C 62.441406 70.542969 63.640625 73.542969 65.441406 76.242188 L 50.441406 91.242188 L 54.640625 95.441406 L 69.640625 80.441406 C 72.34375 82.242188 75.640625 83.441406 78.941406 83.441406 C 87.941406 83.441406 95.441406 75.941406 95.441406 66.941406 C 95.441406 57.941406 87.941406 50.441406 78.941406 50.441406 Z M 78.941406 77.441406 C 73.242188 77.441406 68.441406 72.640625 68.441406 66.941406 C 68.441406 61.242188 73.242188 56.441406 78.941406 56.441406 C 84.640625 56.441406 89.441406 61.242188 89.441406 66.941406 C 89.441406 72.640625 84.640625 77.441406 78.941406 77.441406 Z M 78.941406 77.441406 "/>
</g>
</svg>
